G04 EAGLE Gerber RS-274X export*
G75*
%MOMM*%
%FSLAX34Y34*%
%LPD*%
%INSoldermask Top*%
%IPPOS*%
%AMOC8*
5,1,8,0,0,1.08239X$1,22.5*%
G01*
%ADD10C,2.203200*%
%ADD11P,1.951982X8X292.500000*%
%ADD12C,1.803400*%
%ADD13R,1.503200X1.703200*%
%ADD14R,1.703200X1.503200*%
%ADD15C,2.214881*%
%ADD16R,1.803200X2.006200*%
%ADD17P,2.199416X8X22.500000*%
%ADD18C,2.032000*%
%ADD19R,0.803200X1.253200*%
%ADD20C,2.003200*%
%ADD21R,0.703200X1.303200*%
%ADD22C,2.032000*%
%ADD23R,2.032000X2.032000*%
%ADD24R,1.503200X1.803200*%
%ADD25C,0.905600*%
%ADD26C,0.705600*%


D10*
X60800Y132600D02*
X40800Y132600D01*
X40800Y71600D02*
X60800Y71600D01*
X98800Y91600D02*
X98800Y111600D01*
D11*
X45720Y469900D03*
D12*
X45720Y495300D03*
D11*
X45720Y203200D03*
D12*
X45720Y228600D03*
D13*
X233020Y739140D03*
X214020Y739140D03*
X233020Y774700D03*
X214020Y774700D03*
D14*
X80010Y381660D03*
X80010Y400660D03*
D15*
X121920Y71120D03*
X223520Y71120D03*
X448310Y176530D03*
X346710Y176530D03*
D16*
X78990Y660400D03*
X50550Y660400D03*
D17*
X318770Y741680D03*
X318770Y767080D03*
X344170Y741680D03*
X344170Y767080D03*
D18*
X282194Y45720D02*
X263906Y45720D01*
X263906Y71120D02*
X282194Y71120D01*
X282194Y96520D02*
X263906Y96520D01*
X263906Y121920D02*
X282194Y121920D01*
D19*
X521310Y186260D03*
X502310Y186260D03*
X511810Y164260D03*
D20*
X50800Y749300D03*
X76200Y723900D03*
X50800Y698500D03*
D13*
X123800Y706120D03*
X104800Y706120D03*
X123800Y762000D03*
X104800Y762000D03*
D14*
X369570Y587400D03*
X369570Y606400D03*
X514350Y560730D03*
X514350Y579730D03*
D13*
X285090Y741680D03*
X266090Y741680D03*
X285090Y767080D03*
X266090Y767080D03*
D14*
X410210Y587400D03*
X410210Y606400D03*
D20*
X546100Y685800D03*
X546100Y660400D03*
X546100Y635000D03*
X546100Y609600D03*
X546100Y584200D03*
X546100Y558800D03*
X546100Y533400D03*
X546100Y508000D03*
X546100Y482600D03*
X546100Y457200D03*
X546100Y431800D03*
X546100Y406400D03*
X546100Y381000D03*
X546100Y355600D03*
X546100Y330200D03*
X546100Y304800D03*
X546100Y279400D03*
X546100Y254000D03*
X546100Y228600D03*
X317500Y228600D03*
X317500Y254000D03*
X317500Y279400D03*
X317500Y304800D03*
X317500Y330200D03*
X317500Y355600D03*
X317500Y381000D03*
X317500Y406400D03*
X317500Y431800D03*
X317500Y457200D03*
X317500Y482600D03*
X317500Y508000D03*
X317500Y533400D03*
X317500Y558800D03*
X317500Y584200D03*
X317500Y609600D03*
X317500Y635000D03*
X317500Y660400D03*
X317500Y685800D03*
D21*
X450230Y545950D03*
X437530Y545950D03*
X424830Y545950D03*
X412130Y545950D03*
X412130Y493550D03*
X424830Y493550D03*
X437530Y493550D03*
X450230Y493550D03*
D22*
X215900Y511810D03*
X203200Y495300D03*
X228600Y495300D03*
D23*
X254000Y673100D03*
D22*
X254000Y647700D03*
X254000Y622300D03*
X254000Y596900D03*
X254000Y571500D03*
X254000Y546100D03*
X254000Y520700D03*
X254000Y495300D03*
D23*
X127000Y495300D03*
D22*
X127000Y520700D03*
X127000Y546100D03*
X127000Y571500D03*
X127000Y596900D03*
X127000Y622300D03*
X127000Y647700D03*
X127000Y673100D03*
X215900Y245110D03*
X203200Y228600D03*
X228600Y228600D03*
D23*
X254000Y406400D03*
D22*
X254000Y381000D03*
X254000Y355600D03*
X254000Y330200D03*
X254000Y304800D03*
X254000Y279400D03*
X254000Y254000D03*
X254000Y228600D03*
D23*
X127000Y228600D03*
D22*
X127000Y254000D03*
X127000Y279400D03*
X127000Y304800D03*
X127000Y330200D03*
X127000Y355600D03*
X127000Y381000D03*
X127000Y406400D03*
D18*
X59944Y546100D02*
X41656Y546100D01*
X41656Y571500D02*
X59944Y571500D01*
X59944Y596900D02*
X41656Y596900D01*
X41656Y622300D02*
X59944Y622300D01*
X59944Y279400D02*
X41656Y279400D01*
X41656Y304800D02*
X59944Y304800D01*
X59944Y330200D02*
X41656Y330200D01*
X41656Y355600D02*
X59944Y355600D01*
D17*
X153670Y741680D03*
X153670Y767080D03*
X179070Y741680D03*
X179070Y767080D03*
D18*
X510286Y63500D02*
X528574Y63500D01*
X528574Y88900D02*
X510286Y88900D01*
D24*
X485300Y520700D03*
X505300Y520700D03*
D25*
X482600Y482600D03*
X508000Y482600D03*
X219710Y121920D03*
X233680Y121920D03*
X247650Y121920D03*
X76200Y152400D03*
X63500Y152400D03*
X50800Y152400D03*
X63500Y177800D03*
X50800Y177800D03*
X69850Y449580D03*
X57150Y449580D03*
X80010Y420370D03*
X482600Y190500D03*
X368300Y546100D03*
X469900Y215900D03*
X457200Y266700D03*
X177800Y622300D03*
X165100Y660400D03*
X203200Y698500D03*
X330200Y596900D03*
X139700Y698500D03*
X165100Y723900D03*
X127000Y457200D03*
X152400Y520700D03*
X342900Y596900D03*
X101600Y635000D03*
X254000Y444500D03*
X342900Y444500D03*
X508000Y406400D03*
X520700Y431800D03*
D26*
X272570Y393700D03*
X304800Y393700D03*
D25*
X292100Y698500D03*
X292100Y571500D03*
X292100Y457200D03*
X300990Y732790D03*
X279400Y698500D03*
X279400Y571500D03*
X279400Y457200D03*
X302260Y754380D03*
X101600Y673100D03*
X240074Y622300D03*
X241300Y584200D03*
X355600Y571500D03*
X76200Y571500D03*
X101600Y546100D03*
X76200Y304800D03*
X101600Y279400D03*
M02*
