M48
;GenerationSoftware,Autodesk,EAGLE,9.6.2*%
;CreationDate,2022-10-23T23:50:31Z*%
FMAT,2
ICI,OFF
METRIC,TZ,000.000
T6C0.350
T5C0.550
T4C0.813
T3C1.000
T2C1.016
T1C1.118
%
G90
M71
T1
X34671Y17653
X44831Y17653
X22352Y7112
X12192Y7112
T2
X15367Y76708
X15367Y74168
X5080Y35560
X5080Y33020
X5080Y30480
X5080Y27940
X5080Y62230
X5080Y59690
X5080Y57150
X5080Y54610
X12700Y40640
X12700Y38100
X12700Y35560
X12700Y33020
X12700Y30480
X12700Y27940
X12700Y25400
X12700Y22860
X25400Y22860
X25400Y25400
X25400Y27940
X25400Y30480
X25400Y33020
X25400Y35560
X25400Y38100
X25400Y40640
X22860Y22860
X20320Y22860
X21590Y24511
X12700Y67310
X12700Y64770
X12700Y62230
X12700Y59690
X12700Y57150
X12700Y54610
X12700Y52070
X12700Y49530
X25400Y49530
X25400Y52070
X25400Y54610
X25400Y57150
X25400Y59690
X25400Y62230
X25400Y64770
X25400Y67310
X22860Y49530
X20320Y49530
X21590Y51181
X27305Y12192
X27305Y9652
X27305Y7112
X27305Y4572
X17907Y74168
X17907Y76708
X51943Y6350
X51943Y8890
X31877Y74168
X31877Y76708
X34417Y74168
X34417Y76708
T3
X54610Y45720
X5080Y74930
X7620Y72390
X5080Y69850
X54610Y68580
X54610Y66040
X54610Y63500
X54610Y60960
X54610Y58420
X5080Y13260
X5080Y7160
X9880Y10160
X54610Y55880
X54610Y53340
X54610Y50800
X54610Y48260
X31750Y68580
X54610Y43180
X54610Y40640
X54610Y38100
X54610Y35560
X54610Y33020
X54610Y30480
X54610Y27940
X54610Y25400
X54610Y22860
X31750Y22860
X31750Y25400
X31750Y27940
X31750Y30480
X31750Y33020
X31750Y35560
X31750Y38100
X31750Y40640
X31750Y43180
X31750Y45720
X31750Y48260
X31750Y50800
X31750Y53340
X31750Y55880
X31750Y58420
X31750Y60960
X31750Y63500
X31750Y66040
T4
X4572Y22860
X4572Y46990
X4572Y49530
X4572Y20320
T5
X10160Y27940
X7620Y30480
X10160Y54610
X7620Y57150
X35560Y57150
X24130Y58420
X24007Y62230
X10160Y67310
X30226Y75438
X27940Y45720
X27940Y57150
X27940Y69850
X30099Y73279
X29210Y45720
X29210Y57150
X29210Y69850
X52070Y43180
X50800Y40640
X34290Y44450
X25400Y44450
X10160Y63500
X34290Y59690
X15240Y52070
X12700Y45720
X50800Y48260
X48260Y48260
X16510Y72390
X13970Y69850
X33020Y59690
X20320Y69850
X16510Y66040
X17780Y62230
X45720Y26670
X46990Y21590
X36830Y54610
X48260Y19050
X8001Y42037
X5715Y44958
X6985Y44958
X5080Y17780
X6350Y17780
X5080Y15240
X6350Y15240
X7620Y15240
X24765Y12192
X23368Y12192
X21971Y12192
T6
X30480Y39370
X27257Y39370
M30