G04 EAGLE Gerber RS-274X export*
G75*
%MOMM*%
%FSLAX34Y34*%
%LPD*%
%INTop Copper*%
%IPPOS*%
%AMOC8*
5,1,8,0,0,1.08239X$1,22.5*%
G01*
%ADD10C,2.000000*%
%ADD11P,1.732040X8X292.500000*%
%ADD12C,1.600200*%
%ADD13R,1.300000X1.500000*%
%ADD14R,1.500000X1.300000*%
%ADD15C,2.011681*%
%ADD16R,1.600000X1.803000*%
%ADD17P,1.979475X8X22.500000*%
%ADD18C,1.828800*%
%ADD19R,0.600000X1.050000*%
%ADD20C,1.800000*%
%ADD21R,0.500000X1.100000*%
%ADD22C,1.828800*%
%ADD23R,1.828800X1.828800*%
%ADD24R,1.300000X1.600000*%
%ADD25C,0.304800*%
%ADD26C,0.702400*%
%ADD27C,2.540000*%
%ADD28C,1.270000*%
%ADD29C,1.016000*%
%ADD30C,1.778000*%
%ADD31C,0.406400*%
%ADD32C,2.032000*%
%ADD33C,0.812800*%
%ADD34C,0.502400*%


D10*
X60800Y132600D02*
X40800Y132600D01*
X40800Y71600D02*
X60800Y71600D01*
X98800Y91600D02*
X98800Y111600D01*
D11*
X45720Y469900D03*
D12*
X45720Y495300D03*
D11*
X45720Y203200D03*
D12*
X45720Y228600D03*
D13*
X233020Y739140D03*
X214020Y739140D03*
X233020Y774700D03*
X214020Y774700D03*
D14*
X80010Y381660D03*
X80010Y400660D03*
D15*
X121920Y71120D03*
X223520Y71120D03*
X448310Y176530D03*
X346710Y176530D03*
D16*
X78990Y660400D03*
X50550Y660400D03*
D17*
X318770Y741680D03*
X318770Y767080D03*
X344170Y741680D03*
X344170Y767080D03*
D18*
X282194Y45720D02*
X263906Y45720D01*
X263906Y71120D02*
X282194Y71120D01*
X282194Y96520D02*
X263906Y96520D01*
X263906Y121920D02*
X282194Y121920D01*
D19*
X521310Y186260D03*
X502310Y186260D03*
X511810Y164260D03*
D20*
X50800Y749300D03*
X76200Y723900D03*
X50800Y698500D03*
D13*
X123800Y706120D03*
X104800Y706120D03*
X123800Y762000D03*
X104800Y762000D03*
D14*
X369570Y587400D03*
X369570Y606400D03*
X514350Y560730D03*
X514350Y579730D03*
D13*
X285090Y741680D03*
X266090Y741680D03*
X285090Y767080D03*
X266090Y767080D03*
D14*
X410210Y587400D03*
X410210Y606400D03*
D20*
X546100Y685800D03*
X546100Y660400D03*
X546100Y635000D03*
X546100Y609600D03*
X546100Y584200D03*
X546100Y558800D03*
X546100Y533400D03*
X546100Y508000D03*
X546100Y482600D03*
X546100Y457200D03*
X546100Y431800D03*
X546100Y406400D03*
X546100Y381000D03*
X546100Y355600D03*
X546100Y330200D03*
X546100Y304800D03*
X546100Y279400D03*
X546100Y254000D03*
X546100Y228600D03*
X317500Y228600D03*
X317500Y254000D03*
X317500Y279400D03*
X317500Y304800D03*
X317500Y330200D03*
X317500Y355600D03*
X317500Y381000D03*
X317500Y406400D03*
X317500Y431800D03*
X317500Y457200D03*
X317500Y482600D03*
X317500Y508000D03*
X317500Y533400D03*
X317500Y558800D03*
X317500Y584200D03*
X317500Y609600D03*
X317500Y635000D03*
X317500Y660400D03*
X317500Y685800D03*
D21*
X450230Y545950D03*
X437530Y545950D03*
X424830Y545950D03*
X412130Y545950D03*
X412130Y493550D03*
X424830Y493550D03*
X437530Y493550D03*
X450230Y493550D03*
D22*
X215900Y511810D03*
X203200Y495300D03*
X228600Y495300D03*
D23*
X254000Y673100D03*
D22*
X254000Y647700D03*
X254000Y622300D03*
X254000Y596900D03*
X254000Y571500D03*
X254000Y546100D03*
X254000Y520700D03*
X254000Y495300D03*
D23*
X127000Y495300D03*
D22*
X127000Y520700D03*
X127000Y546100D03*
X127000Y571500D03*
X127000Y596900D03*
X127000Y622300D03*
X127000Y647700D03*
X127000Y673100D03*
X215900Y245110D03*
X203200Y228600D03*
X228600Y228600D03*
D23*
X254000Y406400D03*
D22*
X254000Y381000D03*
X254000Y355600D03*
X254000Y330200D03*
X254000Y304800D03*
X254000Y279400D03*
X254000Y254000D03*
X254000Y228600D03*
D23*
X127000Y228600D03*
D22*
X127000Y254000D03*
X127000Y279400D03*
X127000Y304800D03*
X127000Y330200D03*
X127000Y355600D03*
X127000Y381000D03*
X127000Y406400D03*
D18*
X59944Y546100D02*
X41656Y546100D01*
X41656Y571500D02*
X59944Y571500D01*
X59944Y596900D02*
X41656Y596900D01*
X41656Y622300D02*
X59944Y622300D01*
X59944Y279400D02*
X41656Y279400D01*
X41656Y304800D02*
X59944Y304800D01*
X59944Y330200D02*
X41656Y330200D01*
X41656Y355600D02*
X59944Y355600D01*
D17*
X153670Y741680D03*
X153670Y767080D03*
X179070Y741680D03*
X179070Y767080D03*
D18*
X510286Y63500D02*
X528574Y63500D01*
X528574Y88900D02*
X510286Y88900D01*
D24*
X485300Y520700D03*
X505300Y520700D03*
D25*
X254000Y673100D02*
X228600Y673100D01*
X215900Y660400D01*
X215900Y546100D02*
X228600Y533400D01*
X355600Y470662D02*
X483362Y470662D01*
X546100Y533400D01*
X215900Y546100D02*
X215900Y660400D01*
X228600Y533400D02*
X275217Y533400D01*
X292100Y516517D01*
X292100Y508000D01*
X304800Y495300D01*
X330962Y495300D02*
X355600Y470662D01*
X330962Y495300D02*
X304800Y495300D01*
X254000Y647700D02*
X241300Y647700D01*
X228600Y635000D01*
X228600Y571500D01*
X240792Y559308D01*
X266192Y559308D01*
X304800Y520700D01*
X330200Y520700D01*
X342900Y508000D01*
X342900Y495300D01*
X360680Y477520D01*
X477520Y477520D02*
X482600Y482600D01*
X477520Y477520D02*
X360680Y477520D01*
D26*
X482600Y482600D03*
X508000Y482600D03*
D25*
X533400Y508000D01*
X546100Y508000D01*
D27*
X273050Y121920D02*
X247650Y121920D01*
D26*
X219710Y121920D03*
D27*
X233680Y121920D02*
X247650Y121920D01*
X233680Y121920D02*
X219710Y121920D01*
D26*
X233680Y121920D03*
X247650Y121920D03*
D27*
X50800Y132600D02*
X50800Y152400D01*
X63500Y152400D01*
D26*
X76200Y152400D03*
D27*
X63500Y152400D01*
D26*
X63500Y152400D03*
X50800Y152400D03*
D28*
X45720Y177800D02*
X45720Y203200D01*
X45720Y177800D02*
X50800Y177800D01*
D26*
X63500Y177800D03*
D28*
X50800Y177800D01*
D26*
X50800Y177800D03*
D28*
X45720Y449580D02*
X45720Y469900D01*
X45720Y449580D02*
X57150Y449580D01*
D26*
X69850Y449580D03*
D28*
X57150Y449580D01*
D26*
X57150Y449580D03*
D29*
X80010Y420370D02*
X80010Y400660D01*
D26*
X80010Y420370D03*
D30*
X482600Y190500D02*
X486840Y186260D01*
X502310Y186260D01*
D26*
X482600Y190500D03*
D29*
X179070Y767080D02*
X186690Y774700D01*
X214020Y774700D01*
X211480Y741680D02*
X179070Y741680D01*
X211480Y741680D02*
X214020Y739140D01*
D31*
X374500Y552300D02*
X368300Y546100D01*
X405780Y552300D02*
X412130Y545950D01*
X405780Y552300D02*
X374500Y552300D01*
D26*
X368300Y546100D03*
D27*
X127000Y167640D02*
X223520Y71120D01*
X127000Y167640D02*
X127000Y228600D01*
X45720Y228600D01*
X127000Y228600D02*
X156210Y228600D01*
X156210Y466090D01*
X127000Y495300D01*
X45720Y495300D01*
X317500Y63500D02*
X519430Y63500D01*
X273050Y71120D02*
X223520Y71120D01*
X273050Y71120D02*
X273050Y45720D01*
X280670Y63500D02*
X273050Y71120D01*
X280670Y63500D02*
X317500Y63500D01*
X346710Y92710D02*
X346710Y176530D01*
X346710Y92710D02*
X317500Y63500D01*
D32*
X519430Y88900D02*
X519430Y140970D01*
X483870Y140970D02*
X448310Y176530D01*
X483870Y140970D02*
X508000Y140970D01*
X519430Y140970D01*
X508000Y140970D02*
X508000Y160450D01*
X511810Y164260D01*
D25*
X521310Y186260D02*
X491670Y215900D01*
X469900Y215900D01*
D26*
X469900Y215900D03*
X457200Y266700D03*
D25*
X431800Y266700D01*
X317500Y381000D01*
D29*
X342900Y228600D02*
X546100Y228600D01*
X342900Y228600D02*
X317500Y203200D01*
X317500Y114300D02*
X299720Y96520D01*
X273050Y96520D01*
X317500Y177800D02*
X317500Y203200D01*
X317500Y177800D02*
X317500Y114300D01*
X317500Y177800D02*
X215900Y177800D01*
X185420Y614680D02*
X177800Y622300D01*
D26*
X177800Y622300D03*
X165100Y660400D03*
D29*
X155600Y669900D01*
X155600Y711200D01*
X185420Y208280D02*
X215900Y177800D01*
X185420Y208280D02*
X185420Y614680D01*
D33*
X104800Y746100D02*
X104800Y762000D01*
X142900Y723900D02*
X155600Y711200D01*
X127000Y723900D02*
X104800Y746100D01*
X127000Y723900D02*
X142900Y723900D01*
X123800Y762000D02*
X128880Y767080D01*
X153670Y767080D01*
D25*
X153670Y741680D02*
X168275Y727075D01*
X196850Y698500D01*
X203200Y698500D01*
D26*
X203200Y698500D03*
X330200Y596900D03*
D25*
X330200Y583060D02*
X354460Y558800D01*
X330200Y583060D02*
X330200Y596900D01*
X354460Y558800D02*
X419100Y558800D01*
D31*
X131420Y698500D02*
X123800Y706120D01*
X131420Y698500D02*
X139700Y698500D01*
D26*
X139700Y698500D03*
X165100Y723900D03*
D31*
X168275Y727075D01*
D25*
X419100Y558800D02*
X424830Y553070D01*
X424830Y545950D01*
D29*
X101600Y381660D02*
X80010Y381660D01*
X101600Y381660D02*
X126340Y381660D01*
X127000Y381000D01*
D33*
X101600Y381660D02*
X101600Y431800D01*
X127000Y457200D01*
D26*
X127000Y457200D03*
X152400Y520700D03*
D33*
X152400Y622300D01*
X127000Y647700D01*
D25*
X546100Y685800D02*
X571500Y660400D01*
X571500Y622300D01*
X571500Y558800D01*
X558800Y546100D01*
X533400Y546100D01*
X539750Y622300D02*
X571500Y622300D01*
X539750Y622300D02*
X523850Y606400D01*
D33*
X127000Y647700D02*
X111970Y662730D01*
D25*
X78990Y670310D02*
X50800Y698500D01*
X266090Y741680D02*
X266090Y767080D01*
D33*
X177800Y647700D02*
X152400Y622300D01*
X177800Y647700D02*
X177800Y673100D01*
X190500Y685800D01*
X215900Y685800D01*
X104800Y684565D02*
X104800Y706120D01*
X111970Y677395D02*
X111970Y662730D01*
X111970Y677395D02*
X104800Y684565D01*
X263550Y739140D02*
X266090Y741680D01*
D25*
X450230Y493550D02*
X456100Y487680D01*
X462280Y487680D01*
X485300Y510700D01*
X485300Y520700D01*
X505300Y520700D02*
X508000Y520700D01*
X533400Y546100D01*
D33*
X241300Y711200D02*
X215900Y685800D01*
X241300Y711200D02*
X330200Y711200D01*
X342900Y723900D01*
X381000Y723900D01*
X381000Y774700D01*
X393700Y787400D01*
X558800Y787400D01*
X571500Y774700D01*
X571500Y711200D01*
X546100Y685800D01*
X241300Y730860D02*
X233020Y739140D01*
X241300Y730860D02*
X241300Y711200D01*
D25*
X233020Y739140D02*
X263550Y739140D01*
D33*
X233020Y739140D02*
X233020Y774700D01*
D25*
X410210Y606400D02*
X523850Y606400D01*
X109640Y660400D02*
X78990Y660400D01*
X109640Y660400D02*
X111970Y662730D01*
X78990Y660400D02*
X78990Y670310D01*
X485300Y520700D02*
X505300Y520700D01*
X369570Y606400D02*
X352400Y606400D01*
X342900Y596900D01*
D26*
X342900Y596900D03*
X101600Y635000D03*
D25*
X75950Y635000D02*
X50550Y660400D01*
X75950Y635000D02*
X101600Y635000D01*
X524815Y588315D02*
X546100Y609600D01*
X524815Y588315D02*
X514350Y579730D01*
X254000Y444500D02*
X254000Y406400D01*
D26*
X254000Y444500D03*
X342900Y444500D03*
D25*
X508000Y444500D01*
X546100Y482600D01*
D26*
X508000Y406400D03*
D25*
X334383Y406400D01*
X322445Y394462D01*
X267462Y394462D02*
X254000Y381000D01*
D26*
X520700Y431800D03*
D25*
X546100Y457200D01*
X271808Y394462D02*
X267462Y394462D01*
X271808Y394462D02*
X272570Y393700D01*
D34*
X272570Y393700D03*
X304800Y393700D03*
D25*
X305562Y394462D01*
X322445Y394462D01*
X533400Y419100D02*
X546100Y406400D01*
X305562Y426855D02*
X305562Y481838D01*
X292100Y495300D01*
X254000Y495300D01*
X305562Y426855D02*
X313317Y419100D01*
X533400Y419100D01*
D27*
X80800Y71600D02*
X50800Y71600D01*
X80800Y71600D02*
X88900Y63500D01*
X114300Y63500D01*
X121920Y71120D01*
D26*
X292100Y698500D03*
D25*
X292100Y571500D01*
D26*
X292100Y571500D03*
X292100Y457200D03*
D25*
X292100Y342900D02*
X304800Y330200D01*
X317500Y330200D01*
X300990Y741680D02*
X285090Y741680D01*
X300990Y741680D02*
X318770Y741680D01*
D26*
X300990Y732790D03*
D25*
X300990Y741680D01*
X292100Y457200D02*
X292100Y342900D01*
D26*
X279400Y698500D03*
D25*
X279400Y571500D01*
D26*
X279400Y571500D03*
X279400Y457200D03*
D25*
X279400Y317500D02*
X292100Y304800D01*
X317500Y304800D01*
X292100Y767080D02*
X285090Y767080D01*
X292100Y767080D02*
X318770Y767080D01*
D26*
X302260Y754380D03*
D25*
X302260Y756920D01*
X292100Y767080D01*
X279400Y457200D02*
X279400Y317500D01*
X322445Y265938D02*
X334383Y254000D01*
X291338Y265938D02*
X254000Y228600D01*
X291338Y265938D02*
X322445Y265938D01*
X508000Y317500D02*
X520700Y330200D01*
X546100Y330200D01*
X508000Y292100D02*
X469900Y254000D01*
X508000Y292100D02*
X508000Y317500D01*
X469900Y254000D02*
X334383Y254000D01*
X76200Y685800D02*
X76200Y723900D01*
X76200Y685800D02*
X88900Y673100D01*
X101600Y673100D01*
D26*
X101600Y673100D03*
X240074Y622300D03*
D25*
X240074Y585426D01*
X241300Y584200D01*
D26*
X241300Y584200D03*
X355600Y571500D03*
D25*
X419100Y571500D01*
X437530Y553070D02*
X437530Y545950D01*
X437530Y553070D02*
X419100Y571500D01*
D28*
X76200Y546100D02*
X50800Y546100D01*
X76200Y546100D02*
X101600Y571500D01*
X127000Y571500D01*
X76200Y571500D02*
X50800Y571500D01*
D26*
X76200Y571500D03*
X101600Y546100D03*
D28*
X127000Y546100D01*
X127000Y596900D02*
X50800Y596900D01*
X50800Y622300D02*
X127000Y622300D01*
X59436Y288036D02*
X50800Y279400D01*
X103936Y304800D02*
X127000Y304800D01*
X87172Y288036D02*
X59436Y288036D01*
X87172Y288036D02*
X103936Y304800D01*
X76200Y304800D02*
X50800Y304800D01*
D26*
X76200Y304800D03*
X101600Y279400D03*
D28*
X127000Y279400D01*
X127000Y330200D02*
X50800Y330200D01*
D25*
X450230Y545950D02*
X450230Y555640D01*
X410210Y587400D02*
X369570Y587400D01*
X450230Y555640D02*
X455320Y560730D01*
X514350Y560730D01*
X441300Y587400D02*
X410210Y587400D01*
X455320Y573380D02*
X455320Y560730D01*
X455320Y573380D02*
X441300Y587400D01*
D28*
X127000Y355600D02*
X50800Y355600D01*
M02*
